<svg width="17" height="18" viewBox="0 0 17 18" fill="none" xmlns="http://www.w3.org/2000/svg">
<path fill-rule="evenodd" clip-rule="evenodd" d="M11.9665 10.3627C11.4059 10.2041 10.9304 9.69528 10.6324 10.0337C10.4834 10.2018 10.3627 10.3864 10.2208 10.5497C10.1096 10.6798 9.92751 10.9757 9.70753 10.9662C9.31487 10.9496 8.31668 10.2751 7.93349 9.96035C7.55503 9.65031 6.81467 8.78647 6.70113 8.44093C6.61834 8.19242 6.87853 8.00545 7.00626 7.84925C7.54793 7.18421 7.40601 7.29544 6.84068 5.90619C6.54974 5.19145 6.58995 5.12755 5.73605 5.16305C5.16599 5.29795 4.73076 6.03163 4.61486 6.59727C4.34048 7.92025 5.32448 9.21247 6.12161 10.1663C6.93057 11.1342 7.89328 11.9105 9.10199 12.3554C10.2374 12.7744 10.9872 13.1388 12.0847 12.4951C12.3402 12.346 12.6146 12.1188 12.7305 11.8348C12.8204 11.6147 12.9907 10.9686 12.8062 10.8029C12.6477 10.6609 12.08 10.4858 11.9665 10.3651V10.3627ZM15.5453 10.2515C15.4459 10.6301 15.3892 10.9354 15.2591 11.2857C15.1408 11.6052 15.006 11.9223 14.8617 12.1945C14.592 12.7105 13.8848 13.6713 13.4094 14.0618L12.6832 14.6417C12.1368 15.0606 11.1741 15.4913 10.4408 15.6925C8.66913 16.1729 6.4977 15.8653 5.03353 14.9304C4.82774 14.7979 4.81828 14.7553 4.55336 14.8405C4.19146 14.9588 2.21163 15.6049 2.07681 15.6073C2.25421 15.1411 2.40323 14.618 2.57354 14.1376C2.66105 13.8914 2.74148 13.65 2.8219 13.4063C2.96382 12.9779 2.98275 13.0726 2.74384 12.7318C2.27077 12.062 1.79296 10.8857 1.67706 9.88698C1.29386 6.59253 3.00877 3.76433 5.95603 2.49578C6.92584 2.07924 8.13218 1.897 9.32907 2.00114C10.7105 2.11947 11.7891 2.61885 12.8559 3.37619C13.239 3.64836 14.2349 4.56664 14.2987 4.85774C14.3957 4.92638 14.4383 5.00448 14.5022 5.10625C15.5429 6.69904 15.8504 8.30839 15.5453 10.2538V10.2515ZM0.0591348 17.4628L0 17.645L0.205788 17.6024C1.06442 17.361 1.90177 17.0391 2.75567 16.793C2.97802 16.7291 4.51315 16.1777 4.66926 16.2416C4.87269 16.3268 5.03353 16.4356 5.25824 16.5279C7.04174 17.2663 8.94351 17.5007 10.9801 16.9113C12.2338 16.5492 13.3384 15.915 14.2372 15.1079C15.1408 14.2985 15.8339 13.314 16.3542 12.1401C16.9361 10.8242 16.9503 9.51067 17 9.38997V8.47643C16.9763 8.42199 16.9054 7.72618 16.8841 7.58891C16.605 5.91566 15.7558 4.22347 14.5495 3.06852C13.8659 2.41294 13.1184 1.87097 12.2267 1.44733C11.4745 1.08996 10.8027 0.893523 9.97482 0.753888C9.80451 0.725487 9.20607 0.682887 9.11618 0.64502H8.17949C7.99499 0.723121 6.26353 0.649753 4.26951 1.87097C3.70419 2.21651 2.83373 2.89812 2.41032 3.41169C2.27077 3.58209 2.15959 3.70043 2.01767 3.88976C1.90886 4.03177 1.77404 4.21637 1.66286 4.3773C0.0709615 6.70377 -0.15375 10.0456 1.07625 12.4667C1.18269 12.675 1.25602 12.8454 1.37665 13.0394C1.45471 13.1649 1.49492 13.1838 1.44288 13.3566C1.10463 14.4476 0.612634 15.7185 0.262558 16.8309C0.205788 17.0084 0.080423 17.3042 0.0614999 17.4652L0.0591348 17.4628Z" fill="black"/>
</svg>
